<svg fill="#4b5c6b" stroke="#4b5c6b" stroke-width="1" xmlns="http://www.w3.org/2000/svg" version="1.1" x="0px" y="0px" viewBox="-1 -1 66 66"
     enable-background="new -1 -1 66 66" xml:space="preserve"><g><g><g><path d="M31.996,38.499c-1.016,0-2.033-0.245-2.943-0.71c-1.547-0.784-2.696-2.127-3.233-3.779     c-0.538-1.651-0.399-3.411,0.39-4.957c1.113-2.191,3.334-3.555,5.794-3.555c1.016,0,2.032,0.245,2.94,0.709     c1.549,0.786,2.699,2.13,3.236,3.783c0.537,1.651,0.398,3.411-0.391,4.955C36.677,37.137,34.457,38.499,31.996,38.499z      M32.003,27.498c-1.703,0-3.24,0.943-4.012,2.463c-0.547,1.07-0.643,2.288-0.271,3.43c0.372,1.144,1.168,2.072,2.239,2.616     c0.641,0.327,1.325,0.492,2.036,0.492c1.703,0,3.24-0.943,4.011-2.461c0.547-1.07,0.643-2.287,0.271-3.43     c-0.372-1.144-1.168-2.074-2.242-2.619C33.397,27.663,32.714,27.498,32.003,27.498z"></path></g><g><path d="M31.998,34.998c-0.47,0-0.939-0.112-1.359-0.327c-0.712-0.36-1.243-0.979-1.491-1.742s-0.185-1.576,0.18-2.29     c0.513-1.01,1.537-1.64,2.673-1.64c0.47,0,0.94,0.113,1.36,0.328c0.711,0.36,1.242,0.979,1.49,1.742s0.185,1.576-0.18,2.29     C34.159,34.369,33.134,34.998,31.998,34.998z M32,30.999c-0.378,0-0.72,0.21-0.891,0.547c-0.122,0.239-0.143,0.51-0.061,0.764     c0.083,0.253,0.259,0.459,0.496,0.578c0.49,0.254,1.103,0.042,1.344-0.436c0.122-0.239,0.143-0.51,0.061-0.764     c-0.083-0.253-0.259-0.459-0.496-0.578C32.309,31.036,32.157,30.999,32,30.999z"></path></g><g><path d="M17.924,60.619c-0.152,0-0.308-0.035-0.453-0.109c-0.492-0.251-0.688-0.853-0.437-1.345l1.819-3.569     c0.251-0.492,0.851-0.688,1.345-0.437c0.492,0.251,0.688,0.853,0.437,1.345l-1.819,3.569     C18.639,60.42,18.288,60.619,17.924,60.619z"></path></g><g><path d="M53.918,54.919c-0.256,0-0.512-0.098-0.707-0.293l-2.826-2.827c-0.391-0.391-0.391-1.023,0-1.414s1.023-0.391,1.414,0     l2.826,2.827c0.391,0.391,0.391,1.023,0,1.414C54.43,54.821,54.174,54.919,53.918,54.919z"></path></g><g><path d="M56.046,20.749c-0.364,0-0.715-0.199-0.892-0.546c-0.251-0.492-0.056-1.095,0.437-1.345l3.574-1.821     c0.492-0.252,1.094-0.056,1.345,0.437s0.056,1.095-0.437,1.345l-3.574,1.821C56.354,20.714,56.198,20.749,56.046,20.749z"></path></g><g><path d="M27.776,6.337c-0.483,0-0.908-0.351-0.986-0.844l-0.627-3.954c-0.087-0.545,0.285-1.058,0.831-1.144     c0.55-0.091,1.057,0.285,1.144,0.831l0.627,3.954c0.087,0.545-0.285,1.058-0.831,1.144C27.881,6.333,27.828,6.337,27.776,6.337z"></path></g><g><path d="M32.027,64.002c-10.225,0-19.914-4.933-25.918-13.194c-10.368-14.273-7.191-34.324,7.08-44.696     c5.506-4,12.001-6.114,18.784-6.114c10.225,0,19.912,4.934,25.915,13.196c5.023,6.914,7.055,15.371,5.718,23.813     c-1.338,8.441-5.882,15.856-12.796,20.88C45.306,61.888,38.811,64.002,32.027,64.002z M31.974,1.997     c-6.358,0-12.447,1.982-17.608,5.731C0.985,17.453-1.992,36.251,7.728,49.632c5.629,7.746,14.713,12.37,24.3,12.37     c6.357,0,12.446-1.982,17.607-5.732c6.482-4.71,10.742-11.662,11.996-19.576c1.253-7.914-0.65-15.843-5.36-22.324     C50.643,6.622,41.561,1.997,31.974,1.997z"></path></g><g><path d="M5.332,28.776c-0.052,0-0.104-0.004-0.157-0.013l-3.948-0.626c-0.546-0.086-0.918-0.599-0.831-1.144     c0.087-0.546,0.604-0.92,1.144-0.831l3.948,0.626c0.546,0.086,0.918,0.599,0.831,1.144C6.24,28.426,5.815,28.776,5.332,28.776z"></path></g><g><path d="M32.025,59.998c-10.595,0-20.162-5.858-24.968-15.29c-3.395-6.662-3.991-14.248-1.681-21.36     c2.311-7.113,7.252-12.899,13.914-16.293c3.979-2.027,8.247-3.056,12.684-3.056c10.598,0,20.164,5.86,24.967,15.293     c3.394,6.66,3.99,14.245,1.68,21.357c-2.312,7.113-7.253,12.9-13.914,16.294C40.729,58.971,36.462,59.998,32.025,59.998z      M31.975,5.999c-4.118,0-8.08,0.955-11.775,2.837c-6.187,3.151-10.774,8.524-12.92,15.13C5.134,30.57,5.688,37.614,8.839,43.8     c4.464,8.758,13.348,14.198,23.187,14.198c4.118,0,8.079-0.954,11.773-2.836c6.186-3.152,10.774-8.525,12.92-15.131     c2.146-6.604,1.592-13.647-1.56-19.831C50.699,11.44,41.815,5.999,31.975,5.999z"></path></g><g><g><path d="M5.137,35.736c-0.483,0-0.908-0.351-0.986-0.844c-0.087-0.545,0.285-1.058,0.831-1.144l21.399-3.391      c0.547-0.09,1.058,0.285,1.144,0.831c0.087,0.545-0.285,1.058-0.831,1.144L5.294,35.724C5.241,35.732,5.188,35.736,5.137,35.736      z"></path></g>
    <g><path d="M5.605,38.7c-0.483,0-0.908-0.351-0.986-0.844c-0.087-0.545,0.285-1.058,0.831-1.144l21.401-3.391      c0.541-0.09,1.057,0.285,1.144,0.831c0.087,0.545-0.285,1.058-0.831,1.144L5.763,38.688C5.71,38.696,5.657,38.7,5.605,38.7z"></path></g>
    <g><path d="M11.876,51.002c-0.256,0-0.512-0.098-0.707-0.293c-0.391-0.391-0.391-1.023,0-1.414l15.321-15.32      c0.391-0.391,1.023-0.391,1.414,0s0.391,1.023,0,1.414l-15.321,15.32C12.388,50.904,12.132,51.002,11.876,51.002z"></path></g>
    <g><path d="M13.998,53.125c-0.256,0-0.512-0.098-0.707-0.293c-0.391-0.391-0.391-1.023,0-1.414l15.321-15.322      c0.391-0.391,1.023-0.391,1.414,0s0.391,1.023,0,1.414L14.705,52.832C14.51,53.027,14.254,53.125,13.998,53.125z"></path></g>
    <g><path d="M26.301,59.393c-0.052,0-0.104-0.004-0.157-0.013c-0.546-0.086-0.918-0.599-0.831-1.144l3.392-21.4      c0.086-0.546,0.598-0.922,1.144-0.831c0.546,0.086,0.918,0.599,0.831,1.144l-3.392,21.4      C27.209,59.042,26.784,59.393,26.301,59.393z"></path></g>
    <g><path d="M29.266,59.861c-0.052,0-0.104-0.004-0.157-0.013c-0.546-0.086-0.918-0.599-0.831-1.144l3.39-21.401      c0.086-0.545,0.604-0.92,1.144-0.831c0.546,0.086,0.918,0.599,0.831,1.144l-3.39,21.401      C30.175,59.51,29.749,59.861,29.266,59.861z"></path></g>
    <g><path d="M42.902,57.702c-0.364,0-0.716-0.199-0.892-0.546l-9.835-19.308c-0.251-0.492-0.056-1.095,0.437-1.345      c0.492-0.252,1.095-0.056,1.345,0.437l9.835,19.308c0.251,0.492,0.056,1.095-0.437,1.345      C43.21,57.667,43.055,57.702,42.902,57.702z"></path></g>
    <g><path d="M45.578,56.338c-0.364,0-0.715-0.199-0.892-0.546l-9.839-19.305c-0.251-0.492-0.056-1.095,0.437-1.345      c0.492-0.252,1.094-0.056,1.345,0.437l9.839,19.305c0.251,0.492,0.056,1.095-0.437,1.345      C45.886,56.303,45.73,56.338,45.578,56.338z"></path></g>
    <g><path d="M55.337,46.577c-0.152,0-0.308-0.035-0.453-0.109l-19.305-9.841c-0.492-0.251-0.688-0.853-0.437-1.345      c0.25-0.491,0.851-0.689,1.345-0.437l19.305,9.841c0.492,0.251,0.688,0.853,0.437,1.345      C56.052,46.378,55.701,46.577,55.337,46.577z"></path></g>
    <g><path d="M56.701,43.9c-0.152,0-0.308-0.035-0.453-0.109L36.94,33.955c-0.492-0.25-0.688-0.853-0.437-1.345      c0.249-0.492,0.851-0.688,1.345-0.437l19.308,9.836c0.492,0.25,0.688,0.853,0.437,1.345C57.417,43.701,57.065,43.9,56.701,43.9z      "></path></g>
    <g><path d="M37.459,33.651c-0.483,0-0.909-0.352-0.986-0.844c-0.087-0.546,0.285-1.058,0.831-1.144l21.4-3.386      c0.545-0.09,1.059,0.286,1.144,0.831c0.087,0.546-0.285,1.058-0.831,1.144l-21.4,3.386      C37.563,33.647,37.511,33.651,37.459,33.651z"></path></g>
    <g><path d="M36.99,30.691c-0.483,0-0.908-0.351-0.986-0.844c-0.087-0.545,0.285-1.058,0.831-1.144l21.399-3.393      c0.55-0.092,1.057,0.285,1.144,0.831c0.087,0.545-0.285,1.058-0.831,1.144l-21.399,3.393      C37.095,30.688,37.042,30.691,36.99,30.691z"></path></g>
    <g><path d="M36.801,30.316c-0.256,0-0.512-0.098-0.707-0.293c-0.391-0.391-0.391-1.023,0-1.414l15.322-15.316      c0.391-0.391,1.023-0.391,1.414,0s0.391,1.023,0,1.414L37.508,30.023C37.313,30.219,37.057,30.316,36.801,30.316z"></path></g>
    <g><path d="M34.682,28.196c-0.256,0-0.512-0.098-0.707-0.293c-0.391-0.391-0.391-1.023,0-1.414l15.318-15.321      c0.391-0.391,1.023-0.391,1.414,0s0.391,1.023,0,1.414L35.389,27.903C35.193,28.099,34.938,28.196,34.682,28.196z"></path></g>
    <g><path d="M34.309,28.007c-0.052,0-0.104-0.004-0.157-0.013c-0.546-0.086-0.918-0.599-0.831-1.144l3.392-21.398      c0.087-0.546,0.598-0.92,1.144-0.831c0.546,0.086,0.918,0.599,0.831,1.144l-3.392,21.398      C35.217,27.656,34.792,28.007,34.309,28.007z"></path></g>
    <g><path d="M31.348,27.537c-0.052,0-0.104-0.004-0.157-0.013c-0.546-0.086-0.918-0.598-0.831-1.144l3.385-21.399      c0.086-0.545,0.597-0.919,1.144-0.831c0.546,0.086,0.918,0.598,0.831,1.144l-3.385,21.399      C32.257,27.186,31.831,27.537,31.348,27.537z"></path></g>
    <g><path d="M30.932,27.605c-0.364,0-0.716-0.199-0.892-0.546L20.207,7.753c-0.251-0.492-0.056-1.095,0.437-1.345      c0.492-0.252,1.095-0.056,1.345,0.437l9.833,19.307c0.251,0.492,0.056,1.095-0.437,1.345      C31.239,27.57,31.084,27.605,30.932,27.605z"></path></g>
    <g><path d="M28.261,28.964c-0.364,0-0.715-0.199-0.892-0.546L17.53,9.116c-0.251-0.492-0.056-1.094,0.437-1.345      c0.492-0.253,1.094-0.056,1.345,0.437L29.15,27.51c0.251,0.492,0.056,1.094-0.437,1.345      C28.568,28.929,28.413,28.964,28.261,28.964z"></path></g>
    <g><path d="M27.963,29.263c-0.152,0-0.308-0.035-0.453-0.109L8.207,19.313c-0.492-0.251-0.688-0.853-0.437-1.345      c0.25-0.492,0.85-0.689,1.345-0.437l19.303,9.841c0.492,0.251,0.688,0.853,0.437,1.345      C28.678,29.063,28.327,29.263,27.963,29.263z"></path></g>
    <g><path d="M26.602,31.934c-0.152,0-0.308-0.035-0.453-0.109L6.841,21.99c-0.492-0.25-0.688-0.853-0.437-1.345      c0.249-0.491,0.85-0.688,1.345-0.437l19.308,9.834c0.492,0.25,0.688,0.853,0.437,1.345      C27.317,31.734,26.966,31.934,26.602,31.934z"></path></g></g></g></g></svg>