<svg xmlns="http://www.w3.org/2000/svg" viewBox="0 0 64 64" fill="#4b5c6b">
    <path d="M32 38.5c-1 0-2-0.2-2.9-0.7 -1.5-0.8-2.7-2.1-3.2-3.8 -0.5-1.7-0.4-3.4 0.4-5 1.1-2.2 3.3-3.6 5.8-3.6 1 0 2 0.2 2.9 0.7 1.5 0.8 2.7 2.1 3.2 3.8 0.5 1.7 0.4 3.4-0.4 5C36.7 37.1 34.5 38.5 32 38.5zM32 27.5c-1.7 0-3.2 0.9-4 2.5 -0.5 1.1-0.6 2.3-0.3 3.4 0.4 1.1 1.2 2.1 2.2 2.6 0.6 0.3 1.3 0.5 2 0.5 1.7 0 3.2-0.9 4-2.5 0.5-1.1 0.6-2.3 0.3-3.4 -0.4-1.1-1.2-2.1-2.2-2.6C33.4 27.7 32.7 27.5 32 27.5z"/>
    <path d="M32 35c-0.5 0-0.9-0.1-1.4-0.3 -0.7-0.4-1.2-1-1.5-1.7s-0.2-1.6 0.2-2.3c0.5-1 1.5-1.6 2.7-1.6 0.5 0 0.9 0.1 1.4 0.3 0.7 0.4 1.2 1 1.5 1.7s0.2 1.6-0.2 2.3C34.2 34.4 33.1 35 32 35zM32 31c-0.4 0-0.7 0.2-0.9 0.5 -0.1 0.2-0.1 0.5-0.1 0.8 0.1 0.3 0.3 0.5 0.5 0.6 0.5 0.3 1.1 0 1.3-0.4 0.1-0.2 0.1-0.5 0.1-0.8 -0.1-0.3-0.3-0.5-0.5-0.6C32.3 31 32.2 31 32 31z"/>
    <path d="M17.9 60.6c-0.2 0-0.3 0-0.5-0.1 -0.5-0.3-0.7-0.9-0.4-1.3l1.8-3.6c0.3-0.5 0.9-0.7 1.3-0.4 0.5 0.3 0.7 0.9 0.4 1.3l-1.8 3.6C18.6 60.4 18.3 60.6 17.9 60.6z"/>
    <path d="M53.9 54.9c-0.3 0-0.5-0.1-0.7-0.3l-2.8-2.8c-0.4-0.4-0.4-1 0-1.4s1-0.4 1.4 0l2.8 2.8c0.4 0.4 0.4 1 0 1.4C54.4 54.8 54.2 54.9 53.9 54.9z"/>
    <path d="M56 20.7c-0.4 0-0.7-0.2-0.9-0.5 -0.3-0.5-0.1-1.1 0.4-1.3l3.6-1.8c0.5-0.3 1.1-0.1 1.3 0.4s0.1 1.1-0.4 1.3l-3.6 1.8C56.4 20.7 56.2 20.7 56 20.7z"/>
    <path d="M27.8 6.3c-0.5 0-0.9-0.4-1-0.8l-0.6-4c-0.1-0.5 0.3-1.1 0.8-1.1 0.6-0.1 1.1 0.3 1.1 0.8l0.6 4c0.1 0.5-0.3 1.1-0.8 1.1C27.9 6.3 27.8 6.3 27.8 6.3z"/>
    <path d="M32 64c-10.2 0-19.9-4.9-25.9-13.2 -10.4-14.3-7.2-34.3 7.1-44.7 5.5-4 12-6.1 18.8-6.1 10.2 0 19.9 4.9 25.9 13.2 5 6.9 7.1 15.4 5.7 23.8 -1.3 8.4-5.9 15.9-12.8 20.9C45.3 61.9 38.8 64 32 64zM32 2c-6.4 0-12.4 2-17.6 5.7C1 17.5-2 36.3 7.7 49.6c5.6 7.7 14.7 12.4 24.3 12.4 6.4 0 12.4-2 17.6-5.7 6.5-4.7 10.7-11.7 12-19.6 1.3-7.9-0.6-15.8-5.4-22.3C50.6 6.6 41.6 2 32 2z"/>
    <path d="M5.3 28.8c-0.1 0-0.1 0-0.2 0l-3.9-0.6c-0.5-0.1-0.9-0.6-0.8-1.1 0.1-0.5 0.6-0.9 1.1-0.8l3.9 0.6c0.5 0.1 0.9 0.6 0.8 1.1C6.2 28.4 5.8 28.8 5.3 28.8z"/>
    <path d="M32 60c-10.6 0-20.2-5.9-25-15.3 -3.4-6.7-4-14.2-1.7-21.4 2.3-7.1 7.3-12.9 13.9-16.3 4-2 8.2-3.1 12.7-3.1 10.6 0 20.2 5.9 25 15.3 3.4 6.7 4 14.2 1.7 21.4 -2.3 7.1-7.3 12.9-13.9 16.3C40.7 59 36.5 60 32 60zM32 6c-4.1 0-8.1 1-11.8 2.8 -6.2 3.2-10.8 8.5-12.9 15.1C5.1 30.6 5.7 37.6 8.8 43.8c4.5 8.8 13.3 14.2 23.2 14.2 4.1 0 8.1-1 11.8-2.8 6.2-3.2 10.8-8.5 12.9-15.1 2.1-6.6 1.6-13.6-1.6-19.8C50.7 11.4 41.8 6 32 6z"/>
    <path d="M5.1 35.7c-0.5 0-0.9-0.4-1-0.8 -0.1-0.5 0.3-1.1 0.8-1.1l21.4-3.4c0.5-0.1 1.1 0.3 1.1 0.8 0.1 0.5-0.3 1.1-0.8 1.1L5.3 35.7C5.2 35.7 5.2 35.7 5.1 35.7z"/>
    <path d="M5.6 38.7c-0.5 0-0.9-0.4-1-0.8 -0.1-0.5 0.3-1.1 0.8-1.1l21.4-3.4c0.5-0.1 1.1 0.3 1.1 0.8 0.1 0.5-0.3 1.1-0.8 1.1L5.8 38.7C5.7 38.7 5.7 38.7 5.6 38.7z"/>
    <path d="M11.9 51c-0.3 0-0.5-0.1-0.7-0.3 -0.4-0.4-0.4-1 0-1.4l15.3-15.3c0.4-0.4 1-0.4 1.4 0s0.4 1 0 1.4l-15.3 15.3C12.4 50.9 12.1 51 11.9 51z"/>
    <path d="M14 53.1c-0.3 0-0.5-0.1-0.7-0.3 -0.4-0.4-0.4-1 0-1.4l15.3-15.3c0.4-0.4 1-0.4 1.4 0s0.4 1 0 1.4L14.7 52.8C14.5 53 14.3 53.1 14 53.1z"/>
    <path d="M26.3 59.4c-0.1 0-0.1 0-0.2 0 -0.5-0.1-0.9-0.6-0.8-1.1l3.4-21.4c0.1-0.5 0.6-0.9 1.1-0.8 0.5 0.1 0.9 0.6 0.8 1.1l-3.4 21.4C27.2 59 26.8 59.4 26.3 59.4z"/>
    <path d="M29.3 59.9c-0.1 0-0.1 0-0.2 0 -0.5-0.1-0.9-0.6-0.8-1.1l3.4-21.4c0.1-0.5 0.6-0.9 1.1-0.8 0.5 0.1 0.9 0.6 0.8 1.1l-3.4 21.4C30.2 59.5 29.7 59.9 29.3 59.9z"/>
    <path d="M42.9 57.7c-0.4 0-0.7-0.2-0.9-0.5l-9.8-19.3c-0.3-0.5-0.1-1.1 0.4-1.3 0.5-0.3 1.1-0.1 1.3 0.4l9.8 19.3c0.3 0.5 0.1 1.1-0.4 1.3C43.2 57.7 43.1 57.7 42.9 57.7z"/>
    <path d="M45.6 56.3c-0.4 0-0.7-0.2-0.9-0.5l-9.8-19.3c-0.3-0.5-0.1-1.1 0.4-1.3 0.5-0.3 1.1-0.1 1.3 0.4l9.8 19.3c0.3 0.5 0.1 1.1-0.4 1.3C45.9 56.3 45.7 56.3 45.6 56.3z"/>
    <path d="M55.3 46.6c-0.2 0-0.3 0-0.5-0.1l-19.3-9.8c-0.5-0.3-0.7-0.9-0.4-1.3 0.3-0.5 0.9-0.7 1.3-0.4l19.3 9.8c0.5 0.3 0.7 0.9 0.4 1.3C56.1 46.4 55.7 46.6 55.3 46.6z"/>
    <path d="M56.7 43.9c-0.2 0-0.3 0-0.5-0.1L36.9 34c-0.5-0.2-0.7-0.9-0.4-1.3 0.2-0.5 0.9-0.7 1.3-0.4l19.3 9.8c0.5 0.3 0.7 0.9 0.4 1.3C57.4 43.7 57.1 43.9 56.7 43.9z"/>
    <path d="M37.5 33.7c-0.5 0-0.9-0.4-1-0.8 -0.1-0.5 0.3-1.1 0.8-1.1l21.4-3.4c0.5-0.1 1.1 0.3 1.1 0.8 0.1 0.5-0.3 1.1-0.8 1.1l-21.4 3.4C37.6 33.6 37.5 33.7 37.5 33.7z"/>
    <path d="M37 30.7c-0.5 0-0.9-0.4-1-0.8 -0.1-0.5 0.3-1.1 0.8-1.1l21.4-3.4c0.6-0.1 1.1 0.3 1.1 0.8 0.1 0.5-0.3 1.1-0.8 1.1l-21.4 3.4C37.1 30.7 37 30.7 37 30.7z"/>
    <path d="M36.8 30.3c-0.3 0-0.5-0.1-0.7-0.3 -0.4-0.4-0.4-1 0-1.4l15.3-15.3c0.4-0.4 1-0.4 1.4 0s0.4 1 0 1.4L37.5 30C37.3 30.2 37.1 30.3 36.8 30.3z"/>
    <path d="M34.7 28.2c-0.3 0-0.5-0.1-0.7-0.3 -0.4-0.4-0.4-1 0-1.4l15.3-15.3c0.4-0.4 1-0.4 1.4 0s0.4 1 0 1.4L35.4 27.9C35.2 28.1 34.9 28.2 34.7 28.2z"/>
    <path d="M34.3 28c-0.1 0-0.1 0-0.2 0 -0.5-0.1-0.9-0.6-0.8-1.1l3.4-21.4c0.1-0.5 0.6-0.9 1.1-0.8 0.5 0.1 0.9 0.6 0.8 1.1l-3.4 21.4C35.2 27.7 34.8 28 34.3 28z"/>
    <path d="M31.3 27.5c-0.1 0-0.1 0-0.2 0 -0.5-0.1-0.9-0.6-0.8-1.1l3.4-21.4c0.1-0.5 0.6-0.9 1.1-0.8 0.5 0.1 0.9 0.6 0.8 1.1l-3.4 21.4C32.3 27.2 31.8 27.5 31.3 27.5z"/>
    <path d="M30.9 27.6c-0.4 0-0.7-0.2-0.9-0.5L20.2 7.8c-0.3-0.5-0.1-1.1 0.4-1.3 0.5-0.3 1.1-0.1 1.3 0.4l9.8 19.3c0.3 0.5 0.1 1.1-0.4 1.3C31.2 27.6 31.1 27.6 30.9 27.6z"/>
    <path d="M28.3 29c-0.4 0-0.7-0.2-0.9-0.5L17.5 9.1c-0.3-0.5-0.1-1.1 0.4-1.3 0.5-0.3 1.1-0.1 1.3 0.4L29.2 27.5c0.3 0.5 0.1 1.1-0.4 1.3C28.6 28.9 28.4 29 28.3 29z"/>
    <path d="M28 29.3c-0.2 0-0.3 0-0.5-0.1L8.2 19.3c-0.5-0.3-0.7-0.9-0.4-1.3 0.3-0.5 0.9-0.7 1.3-0.4l19.3 9.8c0.5 0.3 0.7 0.9 0.4 1.3C28.7 29.1 28.3 29.3 28 29.3z"/>
    <path d="M26.6 31.9c-0.2 0-0.3 0-0.5-0.1L6.8 22c-0.5-0.2-0.7-0.9-0.4-1.3 0.2-0.5 0.9-0.7 1.3-0.4l19.3 9.8c0.5 0.3 0.7 0.9 0.4 1.3C27.3 31.7 27 31.9 26.6 31.9z"/>
</svg>