<svg xmlns="http://www.w3.org/2000/svg" viewBox="0 0 512 512">
    <path d="m481.3 304.8-45.8-59.6 23.8-18.3 45.8 59.6zm0 0" fill="#dc9e00"></path>
    <path d="m233.4 5.7 53.6 46.7-19.7 22.6-53.6-46.7zm0 0" fill="#eebf00"></path>
    <path d="m122.2 67.5-29-7.5 15.4-59.5 29 7.5zm0 0" fill="#eebf00"></path>
    <path d="m363.7 483.1-28.2-10.1 33.5-93.6 28.2 10.1zm0 0" fill="#dc9e00"></path>
    <path d="m40.3 177.8-10.1-28.2 93.6-33.5 10.1 28.2zm0 0" fill="#eebf00"></path>
    <path d="m241 172.6h30v84.7h-30zm0 0" fill="#eebf00"></path>
    <path d="m192.4 305.9h84.7v30h-84.7zm0 0" fill="#dc9e00"></path>
    <path d="m113.9 299.7h30v84.7h-30zm0 0" fill="#eebf00"></path>
    <path d="m177.5 65.3 29.8 2.6-8.6 97.3-29.8-2.6zm0 0" fill="#eebf00"></path>
    <path d="m315 462.3-79.2-25.2 9.1-28.6 79.2 25.3zm0 0" fill="#dc9e00"></path>
    <path d="m76.3 277.5-25.2-79.2 28.6-9.1 25.3 79.2zm0 0" fill="#eebf00"></path>
    <path d="m446.1 335.9-99.4-3.6-20.4-70.7 28.8-8.3 14.4 49.9 77.7 2.9zm0 0" fill="#dc9e00"></path>
    <path d="m201.9 449.6-27.5-11.8 25.5-59.3 27.5 11.8zm0 0" fill="#dc9e00"></path>
    <path d="m187.8 250.4-62.7-20.3 9.2-28.5 62.7 20.3zm0 0" fill="#eebf00"></path>
    <path d="m20.7 167-16.9-74.9 29.2-6.6 16.9 74.9zm0 0" fill="#eebf00"></path>
    <path d="m448.4 418.9-6.4-29.3 63.6-13.9 6.4 29.3zm0 0" fill="#dc9e00"></path>
    <path d="m421.2 509.6-74.9-16.9 6.6-29.2 74.9 16.9zm0 0" fill="#dc9e00"></path>
    <path d="m436.1 437.4c-49.7 49.7-115.1 74.4-180.1 74.4-65.3 0-130.6-24.7-180.1-74.4-101.3-101-101.3-259.1 0-360.1 82.1-82.4 209.4-101.4 309.5-42.1l-15.3 25.8c-88.4-52.1-200.4-35.2-273.2 37.6-69.4 69.4-83.5 163.7-46.7 248.4 6-51.5 36.9-111.5 89.3-163.9 71.6-71.6 163.3-106.1 222.9-83.3l-10.5 27.9c-48.2-18.3-128.5 14.1-191.5 76.7-67.7 68-97.4 154-71.9 199.2l231-231 21.3 21.3-231 231c45.2 25.5 131.2-4.2 199.2-72.2 62.6-62.6 94.7-143.2 76.4-191.2l28.2-10.8c22.5 59.6-11.7 151.3-83.6 223.2-52.1 52.1-112.1 83.3-163.6 89.3 81.7 35.5 181.6 19.7 248.4-47 72.5-72.5 87.6-184.9 35.5-272.9l25.8-15.3c59 100.1 42.1 227.4-39.9 309.5zm0 0" fill="#ffda2d"></path>
    <path d="m436.1 437.4c-49.7 49.7-115.1 74.4-180.1 74.4-65.3 0-130.6-24.7-180.1-74.4l254.4-254.1 10.5 10.5-231 231c45.2 25.5 131.2-4.2 199.2-72.2 62.6-62.6 94.7-143.2 76.4-191.2l28.2-10.8c22.5 59.6-11.7 151.3-83.6 223.2-52.1 52.1-112.1 83.3-163.6 89.3 81.7 35.5 181.6 19.7 248.4-47 72.5-72.5 87.6-184.9 35.5-272.9l25.8-15.3c59 100.1 42.1 227.4-39.9 309.5zm0 0" fill="#eebf00"></path>
</svg>